<svg xmlns="http://www.w3.org/2000/svg" viewBox="0 0 512 512">
  <defs>
    <linearGradient id="bg" x1="0" y1="0" x2="1" y2="1">
      <stop offset="0%" stop-color="#0f1f3d"/>
      <stop offset="100%" stop-color="#09111f"/>
    </linearGradient>
    <linearGradient id="accent" x1="0" y1="0" x2="1" y2="1">
      <stop offset="0%" stop-color="#7bb0ff"/>
      <stop offset="100%" stop-color="#2d79ff"/>
    </linearGradient>
    <linearGradient id="mint" x1="0" y1="0" x2="1" y2="1">
      <stop offset="0%" stop-color="#30d39a"/>
      <stop offset="100%" stop-color="#149968"/>
    </linearGradient>
  </defs>
  <rect x="24" y="24" width="464" height="464" rx="112" fill="url(#bg)"/>
  <rect x="80" y="112" width="352" height="64" rx="24" fill="#122443" opacity="0.92"/>
  <rect x="80" y="208" width="168" height="176" rx="34" fill="#10213c" opacity="0.98"/>
  <rect x="264" y="208" width="168" height="176" rx="34" fill="#10213c" opacity="0.98"/>
  <circle cx="128" cy="144" r="14" fill="url(#mint)"/>
  <rect x="156" y="132" width="146" height="24" rx="12" fill="#324f82"/>
  <rect x="104" y="244" width="120" height="18" rx="9" fill="#3b5a90"/>
  <rect x="104" y="286" width="96" height="64" rx="18" fill="url(#accent)"/>
  <rect x="288" y="244" width="120" height="18" rx="9" fill="#3b5a90"/>
  <path d="M304 346h28l24-64 18 44h18" fill="none" stroke="url(#mint)" stroke-width="20" stroke-linecap="round" stroke-linejoin="round"/>
</svg>
